<?xml version="1.0" encoding="UTF-8"?>
<svg xmlns="http://www.w3.org/2000/svg" viewBox="0 0 337.94 131.76">
  <defs>
    <style>
      .cls-1 {
        isolation: isolate;
      }

      .cls-2 {
        fill: #4f5a66;
      }

      .cls-2, .cls-3, .cls-4, .cls-5, .cls-6, .cls-7, .cls-8, .cls-9, .cls-10, .cls-11 {
        stroke-width: 0px;
      }

      .cls-3 {
        fill: #3f4a57;
      }

      .cls-4 {
        fill: #0f151a;
      }

      .cls-5 {
        fill: #14171a;
      }

      .cls-6 {
        fill: #dce2e8;
      }

      .cls-7 {
        fill: #d6333a;
      }

      .cls-8, .cls-10 {
        fill: #fff;
      }

      .cls-9 {
        fill: #06080a;
      }

      .cls-10 {
        opacity: .4;
      }

      .cls-10, .cls-11 {
        mix-blend-mode: overlay;
      }

      .cls-11 {
        opacity: .3;
      }
    </style>
  </defs>
  <g class="cls-1">
    <g id="Layer_1" data-name="Layer 1">
      <g>
        <polygon class="cls-10" points="82.42 59.71 262.37 59.71 309.37 116.04 35.42 116.04 82.42 59.71"/>
        <rect class="cls-8" x="16.86" y="115.55" width="311.8" height=".84"/>
        <rect class="cls-8" x="39.98" y="18.84" width="260.21" height=".84"/>
        <g>
          <rect class="cls-8" x="12.77" y="67.23" width="126.05" height=".84" transform="translate(-24.71 82.49) rotate(-50.15)"/>
          <rect class="cls-8" x="268.57" y="4.63" width=".84" height="126.05" transform="translate(19.12 188.05) rotate(-39.84)"/>
        </g>
        <rect class="cls-8" x="172.18" y="60.06" width=".42" height="55.91"/>
        <rect class="cls-8" x="74.51" y="68.98" width="195.77" height=".42"/>
        <rect class="cls-8" x="62.03" y="83.93" width="220.73" height=".42"/>
        <rect class="cls-8" x="49.55" y="98.89" width="245.68" height=".42"/>
      </g>
      <g>
        <g>
          <rect class="cls-4" x="200.71" y="41.94" width="7.29" height="22.31" rx=".95" ry=".95"/>
          <rect class="cls-4" x="136.79" y="41.94" width="7.29" height="22.31" rx=".95" ry=".95"/>
        </g>
        <g>
          <path class="cls-6" d="m144.29,28.34h-1.43c-.63,0-1.12-2.33-2.09-2.44-.57-.06-2.65-.15-4.3.36-1.52.47-1.37,1.47.51,2.56,1.73,1,5.31.74,5.85.74h1.46v-1.21Z"/>
          <path class="cls-8" d="m141.39,29.08c-2.44,0-3.61-.38-4.16-.7-1.06-.61-1.3-1.06-1.29-1.22,0-.08.16-.27.67-.42,1.09-.33,2.37-.38,3.04-.38.48,0,.86.02,1.06.05.27.03.65.74.87,1.16.37.69.69,1.28,1.28,1.28h.93v.2h-.96c-.07,0-.18,0-.33,0-.26,0-.66.02-1.12.02Z"/>
          <path class="cls-6" d="m200.5,28.34h1.43c.63,0,1.12-2.33,2.09-2.44.57-.06,2.65-.15,4.3.36,1.52.47,1.37,1.47-.51,2.56-1.73,1-5.31.74-5.85.74h-1.46v-1.21Z"/>
          <path class="cls-8" d="m203.4,29.08c-.46,0-.85-.01-1.12-.02-.15,0-.26,0-.33,0h-.96v-.2h.93c.59,0,.91-.59,1.28-1.28.23-.42.61-1.13.87-1.16.2-.02.58-.05,1.06-.05.67,0,1.95.05,3.04.38.51.16.66.34.67.42.02.15-.23.61-1.29,1.22-.55.32-1.72.7-4.16.7Z"/>
        </g>
        <path class="cls-6" d="m204.88,30.34c-.78-.91-1.76-2.46-3.57-4.93-1.23-1.67-5.5-7.42-6.49-8.36-.99-.95-16.8-1.68-22.42-1.68s-21.43.73-22.42,1.68c-.99.95-5.26,6.7-6.49,8.36-1.81,2.46-2.79,4.02-3.57,4.93-3.57,4.17-3.56,9.04-3.56,10.39v20.43h72.09v-20.43c0-1.35.01-6.22-3.56-10.39Z"/>
        <path class="cls-11" d="m172.39,28.33h-27.57c-1.11,0-2.87.73-4.66,1.69-.09.11-.18.22-.26.32-1.14,1.33-1.92,2.73-2.44,4.07-.58,1.47-.05,3.16,1.29,4,2.3,1.46,4.85,2.7,6.07,2.7h55.13c1.23,0,3.77-1.25,6.07-2.7,1.34-.85,1.87-2.53,1.29-4-.53-1.34-1.3-2.74-2.44-4.07-.08-.1-.17-.21-.26-.32-1.78-.95-3.55-1.69-4.66-1.69h-27.57Z"/>
        <path class="cls-11" d="m180.45,36.58h-16.11c-1.25,0-2.35-.82-2.71-2.01l-.82-2.72c-.11-.36.16-.72.53-.72h22.1c.37,0,.64.36.53.72l-.82,2.72c-.36,1.19-1.46,2.01-2.71,2.01Z"/>
        <path class="cls-3" d="m172.39,25.07c10.1,0,19.68.28,28.26.78-1-1.34-5.57-7.58-6.44-8.15-.97-.63-16.35-1.11-21.82-1.11s-20.86.48-21.82,1.11c-.87.57-5.43,6.81-6.44,8.15,8.58-.5,18.16-.78,28.26-.78Z"/>
        <path class="cls-11" d="m208.44,61.16v-16.13c-1.19,3.11-3.43,4.76-7.48,4.76h-57.14c-4.05,0-6.29-1.65-7.48-4.76v16.13h72.09Z"/>
        <path class="cls-11" d="m172.39,29.58h31.37c-1.48-.73-2.87-1.25-3.8-1.25h-55.13c-.93,0-2.32.52-3.8,1.25h31.37Z"/>
        <path class="cls-5" d="m196.99,54.31h-49.2c-2.55,0-6.3,6.85-6.3,6.85h61.79s-3.75-6.85-6.3-6.85Z"/>
        <path class="cls-9" d="m155.12,56.81h-5.42c-1.2,0-2.18,1.22-2.18,2.72v1.62h9.78v-1.62c0-1.5-.98-2.72-2.18-2.72Z"/>
        <g>
          <circle class="cls-2" cx="150.4" cy="59.09" r="1.79"/>
          <circle class="cls-2" cx="154.41" cy="59.09" r="1.79"/>
        </g>
        <rect class="cls-3" x="163.39" y="31.58" width="18.01" height="4.06"/>
        <g>
          <path class="cls-7" d="m137.74,35.77c.42,1.55,1.55,3.14,3.42,3.14h8.39c.48,0-1.74-3.78-3.23-3.78h-4.08c-1.04,0-3.75-2.07-3.75-2.07,0,0-.96,1.93-.74,2.72Z"/>
          <path class="cls-7" d="m207.05,35.77c-.42,1.55-1.55,3.14-3.42,3.14h-8.39c-.48,0,1.74-3.78,3.23-3.78h4.08c1.04,0,3.75-2.07,3.75-2.07,0,0,.96,1.93.74,2.72Z"/>
        </g>
      </g>
    </g>
  </g>
</svg>