<?xml version="1.0" encoding="UTF-8"?>
<svg id="Layer_1" data-name="Layer 1" xmlns="http://www.w3.org/2000/svg" viewBox="0 0 24 24">
  <defs>
    <style>
      .cls-1 {
        fill: #ae66d8;
        stroke-width: 0px;
      }
    </style>
  </defs>
  <path class="cls-1" d="m8.7,12.55h-3.46v6.72h3.46v-6.72Zm-.96,5.76h-1.54v-4.8h1.54v4.8Zm2.24-9.78v10.74h3.46v-10.74h-3.46Zm2.5,9.78h-1.54v-8.82h1.54v8.82Zm5.7-7.66h-3.46v8.62h3.46v-8.62Zm-.96,7.66h-1.54v-6.7h1.54v6.7Zm-10.24-7.73c.55,0,1.06-.27,1.38-.72.31-.45.38-1.03.19-1.54l2.25-1.89h0c.72.47,1.68.32,2.22-.35l1.77.72c0,.05,0,.11,0,.16,0,.82.59,1.52,1.39,1.66.8.14,1.59-.32,1.87-1.09.27-.77-.05-1.63-.76-2.02-.71-.4-1.61-.23-2.12.41l-1.77-.72c0-.05,0-.11,0-.16,0-.5-.23-.98-.62-1.3-.39-.32-.9-.44-1.4-.34-.49.1-.92.42-1.15.87-.23.45-.25.98-.05,1.44l-2.21,1.86c-.43-.32-.99-.41-1.5-.24-.51.16-.91.56-1.08,1.07-.17.51-.08,1.07.24,1.5.32.43.82.69,1.36.69h0Zm9.48-4.33c.29,0,.55.17.67.43.11.27.06.58-.15.78-.2.21-.51.27-.78.16-.27-.11-.44-.37-.44-.66,0-.39.31-.71.7-.71h0Zm-4.74-1.94c.29,0,.55.17.66.44.11.27.05.57-.16.78-.21.2-.51.27-.78.15-.27-.11-.44-.37-.44-.66,0-.39.32-.71.71-.71h0Zm-4.74,3.88c.29,0,.55.17.66.44.11.27.05.57-.16.78-.21.2-.51.26-.78.15-.27-.11-.44-.37-.44-.66,0-.19.08-.37.21-.51.13-.13.32-.21.51-.21h0Z"/>
</svg>