<?xml version="1.0" encoding="UTF-8"?>
<svg id="Layer_1" data-name="Layer 1" xmlns="http://www.w3.org/2000/svg" viewBox="0 0 24 24">
  <defs>
    <style>
      .cls-1 {
        fill: #ae66d8;
        fill-rule: evenodd;
        stroke-width: 0px;
      }
    </style>
  </defs>
  <path class="cls-1" d="m4.01,9.93v-1.92c0-.14.1-.35.22-.47-.19,0-.38,0-.57.01-.07,0-.12-.05-.12-.12v-.34c0-.07.05-.12.12-.12h.86c.21-.8.56-1.68,1.31-1.95h3.24c.75.27,1.1,1.15,1.31,1.95h.86c.07,0,.12.05.12.12v.34c0,.07-.05.12-.12.12-.2-.01-.38-.01-.57-.01.12.12.22.33.22.47v3c0,.15-.12.27-.27.27h-1.08c-.15,0-.27-.12-.27-.27v-.6c-1.17-.13-2.44-.13-3.61,0v.6c0,.15-.12.27-.27.27h-1.08c-.15,0-.27-.12-.27-.27v-1.08Zm1.79-4.48c-.7.26-.88,1.46-.61,1.8,1.49.23,3.02.23,4.5,0,.27-.34.09-1.54-.61-1.8-1.09-.02-2.17-.02-3.27,0Zm2.92,3.44c.03.11.1.2.25.24.4.05.79.05,1.2,0,.14-.13.22-.35.25-.63-.1-.25-.27-.42-.55-.44-.38.19-.77.44-1.15.82h0Zm-2.57,0c-.02.11-.09.2-.24.24-.4.05-.8.05-1.2,0-.14-.13-.22-.35-.25-.63.1-.25.27-.42.54-.44.38.19.77.44,1.15.82h0Z"/>
  <path class="cls-1" d="m12.46,9.93v-1.92c0-.14.1-.35.22-.47-.19,0-.38,0-.57.01-.07,0-.12-.05-.12-.12v-.34c0-.07.05-.12.12-.12h.86c.21-.8.56-1.68,1.31-1.95h3.24c.75.27,1.1,1.15,1.31,1.95h.86c.07,0,.12.05.12.12v.34c0,.07-.05.12-.12.12-.2-.01-.38-.01-.57-.01.12.12.22.33.22.47v3c0,.15-.12.27-.27.27h-1.08c-.15,0-.27-.12-.27-.27v-.6c-1.17-.13-2.44-.13-3.61,0v.6c0,.15-.12.27-.27.27h-1.08c-.15,0-.27-.12-.27-.27v-1.08Zm1.79-4.48c-.7.26-.88,1.46-.61,1.8,1.49.23,3.02.23,4.5,0,.27-.34.09-1.54-.61-1.8-1.09-.02-2.17-.02-3.27,0Zm2.92,3.44c.03.11.1.2.25.24.4.05.79.05,1.2,0,.14-.13.22-.35.25-.63-.1-.25-.27-.42-.55-.44-.38.19-.77.44-1.15.82h0Zm-2.57,0c-.02.11-.09.2-.24.24-.4.05-.8.05-1.2,0-.14-.13-.22-.35-.25-.63.1-.25.27-.42.54-.44.38.19.77.44,1.15.82h0Z"/>
  <path class="cls-1" d="m4.01,17.53v-1.92c0-.14.1-.35.22-.47-.19,0-.38,0-.57.01-.07,0-.12-.05-.12-.12v-.34c0-.07.05-.12.12-.12h.86c.21-.8.56-1.68,1.31-1.95h3.24c.75.27,1.1,1.15,1.31,1.95h.86c.07,0,.12.05.12.12v.34c0,.07-.05.12-.12.12-.2-.01-.38-.01-.57-.01.12.12.22.33.22.47v3c0,.15-.12.27-.27.27h-1.08c-.15,0-.27-.12-.27-.27v-.6c-1.17-.13-2.44-.13-3.61,0v.6c0,.15-.12.27-.27.27h-1.08c-.15,0-.27-.12-.27-.27v-1.08Zm1.79-4.48c-.7.26-.88,1.46-.61,1.8,1.49.23,3.02.23,4.5,0,.27-.34.09-1.54-.61-1.8-1.09-.02-2.17-.02-3.27,0Zm2.92,3.44c.03.11.1.2.25.24.4.05.79.05,1.2,0,.14-.13.22-.35.25-.63-.1-.25-.27-.42-.55-.44-.38.19-.77.44-1.15.82h0Zm-2.57,0c-.02.11-.09.2-.24.24-.4.05-.8.05-1.2,0-.14-.13-.22-.35-.25-.63.1-.25.27-.42.54-.44.38.19.77.44,1.15.82h0Z"/>
  <path class="cls-1" d="m12.46,17.53v-1.92c0-.14.1-.35.22-.47-.19,0-.38,0-.57.01-.07,0-.12-.05-.12-.12v-.34c0-.07.05-.12.12-.12h.86c.21-.8.56-1.68,1.31-1.95h3.24c.75.27,1.1,1.15,1.31,1.95h.86c.07,0,.12.05.12.12v.34c0,.07-.05.12-.12.12-.2-.01-.38-.01-.57-.01.12.12.22.33.22.47v3c0,.15-.12.27-.27.27h-1.08c-.15,0-.27-.12-.27-.27v-.6c-1.17-.13-2.44-.13-3.61,0v.6c0,.15-.12.27-.27.27h-1.08c-.15,0-.27-.12-.27-.27v-1.08Zm1.79-4.48c-.7.26-.88,1.46-.61,1.8,1.49.23,3.02.23,4.5,0,.27-.34.09-1.54-.61-1.8-1.09-.02-2.17-.02-3.27,0Zm2.92,3.44c.03.11.1.2.25.24.4.05.79.05,1.2,0,.14-.13.22-.35.25-.63-.1-.25-.27-.42-.55-.44-.38.19-.77.44-1.15.82h0Zm-2.57,0c-.02.11-.09.2-.24.24-.4.05-.8.05-1.2,0-.14-.13-.22-.35-.25-.63.1-.25.27-.42.54-.44.38.19.77.44,1.15.82h0Z"/>
</svg>