<?xml version="1.0" encoding="UTF-8"?>
<svg id="Layer_1" data-name="Layer 1" xmlns="http://www.w3.org/2000/svg" viewBox="0 0 24 24">
  <defs>
    <style>
      .cls-1 {
        fill: #ae66d8;
        fill-rule: evenodd;
        stroke-width: 0px;
      }
    </style>
  </defs>
  <path class="cls-1" d="m5.33,15.34v-3.65c0-.27.19-.67.42-.9-.35,0-.73,0-1.09.02-.13,0-.23-.1-.23-.23v-.65c0-.13.1-.23.23-.23h1.63c.4-1.52,1.06-3.19,2.48-3.72h6.16c1.42.52,2.09,2.19,2.48,3.72h1.63c.13,0,.23.1.23.23v.65c0,.13-.1.23-.23.23-.38-.02-.73-.02-1.09-.02.23.23.42.63.42.9v5.7c0,.29-.23.52-.52.52h-2.05c-.29,0-.52-.23-.52-.52v-1.15c-2.23-.25-4.63-.25-6.87,0v1.15c0,.29-.23.52-.52.52h-2.05c-.29,0-.52-.23-.52-.52v-2.05Zm3.4-8.52c-1.34.5-1.67,2.78-1.17,3.42,2.84.44,5.74.44,8.56,0,.52-.65.17-2.92-1.17-3.42-2.07-.04-4.13-.04-6.22,0Zm5.55,6.53c.06.21.19.38.48.46.75.1,1.5.1,2.28,0,.27-.25.42-.67.48-1.19-.19-.48-.52-.79-1.04-.83-.73.35-1.46.83-2.19,1.57h0Zm-4.88,0c-.04.21-.17.38-.46.46-.75.1-1.52.1-2.28,0-.27-.25-.42-.67-.48-1.19.19-.48.52-.79,1.02-.83.73.35,1.46.83,2.19,1.57h0Z"/>
</svg>