<?xml version="1.0" encoding="UTF-8"?>
<svg id="Layer_1" data-name="Layer 1" xmlns="http://www.w3.org/2000/svg" viewBox="0 0 24 24">
  <defs>
    <style>
      .cls-1 {
        fill: #fff;
      }

      .cls-1, .cls-2 {
        stroke-width: 0px;
      }

      .cls-2 {
        fill: #ff5045;
      }
    </style>
  </defs>
  <path class="cls-1" d="m13.12,11.8c0,1.66-2.5,1.66-2.5,0s2.5-1.66,2.5,0"/>
  <g>
    <circle class="cls-2" cx="11.93" cy="11.52" r="6.42"/>
    <path class="cls-1" d="m21.45,10.96h-2.13c-.38-3.47-3.14-6.22-6.61-6.61v-1.92c0-.46-.37-.83-.83-.83s-.83.37-.83.83v1.92c-3.47.38-6.22,3.14-6.61,6.61h-1.71c-.46,0-.83.37-.83.83s.37.83.83.83h1.71c.38,3.47,3.14,6.22,6.61,6.61v1.92c0,.46.37.83.83.83s.83-.37.83-.83v-1.92c3.47-.38,6.22-3.14,6.61-6.61h2.13c.46,0,.83-.37.83-.83s-.37-.83-.83-.83Zm-8.74,6.59v-.56c0-.46-.37-.83-.83-.83s-.83.37-.83.83v.56c-2.55-.37-4.56-2.38-4.93-4.93h.77c.46,0,.83-.37.83-.83s-.37-.83-.83-.83h-.77c.37-2.55,2.38-4.56,4.93-4.93v.56c0,.46.37.83.83.83s.83-.37.83-.83v-.56c2.55.37,4.56,2.38,4.93,4.93h-.35c-.46,0-.83.37-.83.83s.37.83.83.83h.35c-.37,2.55-2.38,4.56-4.93,4.93Z"/>
  </g>
  <circle class="cls-1" cx="11.95" cy="11.74" r="2.26"/>
</svg>