<?xml version="1.0" encoding="UTF-8"?>
<svg id="Layer_1" data-name="Layer 1" xmlns="http://www.w3.org/2000/svg" viewBox="0 0 24 24">
  <defs>
    <style>
      .cls-1 {
        fill: #ae66d8;
        stroke-width: 0px;
      }
    </style>
  </defs>
  <path class="cls-1" d="m11.67,3.8c-2.96,0-5.37,2.41-5.37,5.37,0,1.07.31,2.06.85,2.9l2.51,3.55c-.14.05-.27.11-.39.17-.65.34-1.18.9-1.18,1.62s.52,1.27,1.18,1.61,1.49.54,2.41.54,1.76-.19,2.41-.54,1.18-.89,1.18-1.61-.52-1.27-1.18-1.62c-.12-.07-.26-.12-.39-.17l2.51-3.55c.54-.84.85-1.83.85-2.9,0-2.96-2.41-5.37-5.37-5.37h0Zm0,1.07c2.38,0,4.3,1.92,4.3,4.3,0,.86-.25,1.65-.68,2.32l-3.62,5.28-3.62-5.28c-.43-.67-.68-1.47-.68-2.32,0-2.38,1.92-4.3,4.3-4.3h0Zm0,1.61c-1.48,0-2.69,1.21-2.69,2.69s1.21,2.69,2.69,2.69,2.69-1.21,2.69-2.69-1.21-2.69-2.69-2.69Zm0,1.07c.9,0,1.61.72,1.61,1.61s-.72,1.61-1.61,1.61-1.61-.72-1.61-1.61.72-1.61,1.61-1.61Zm-1.42,8.99l.97,1.51c.1.15.27.25.45.25s.36-.1.45-.25l.97-1.51c.18.06.34.12.48.2.45.24.6.5.6.67s-.15.42-.6.66-1.14.41-1.9.41-1.45-.18-1.9-.41-.6-.49-.6-.66.15-.43.6-.67c.14-.07.3-.14.48-.2h0Z"/>
</svg>