<?xml version="1.0" encoding="UTF-8"?>
<svg id="Layer_1" data-name="Layer 1" xmlns="http://www.w3.org/2000/svg" viewBox="0 0 136.09 35.86">
  <defs>
    <style>
      .cls-1 {
        fill: #f2f2f2;
        stroke-width: 0px;
      }
    </style>
  </defs>
  <path class="cls-1" d="m21.94,23.46c-2.46,1.71-3.66,2.13-6.12,2.13-5.73,0-9.96-4.5-9.96-10.59S10.15,4.41,15.82,4.41c2.46,0,3.63.45,5.91,2.19l.81-1.71h2.1v7.8h-2.28c-.51-2.1-.93-3-1.86-3.99-1.11-1.23-2.55-1.86-4.14-1.86-3.57,0-5.82,3.18-5.82,8.19s2.22,7.92,6.03,7.92c1.35,0,2.61-.42,3.51-1.17.72-.63.96-1.23.96-2.43v-1.11c.03-1.53-.21-1.68-2.28-1.65h-1.26v-2.28h10.56v2.28h-1.26c-1.44.03-1.59.21-1.62,1.86v6.69h-2.19l-1.05-1.68Z"/>
  <path class="cls-1" d="m45.28,19.77c-.03,2.31-.12,3.06-.42,3.84-.57,1.29-1.62,1.92-3.3,1.92-1.77,0-2.61-.6-3.21-2.22-1.47,1.68-2.67,2.25-4.8,2.25-2.55,0-4.29-1.56-4.29-3.84,0-1.53.81-2.82,2.25-3.51.99-.51,2.07-.87,4.26-1.38,1.95-.48,2.61-1.08,2.61-2.4,0-1.56-1.08-2.37-3.15-2.37-1.2,0-1.92.24-2.79.87,1.41.09,1.98.57,1.98,1.65s-.84,1.89-2.07,1.89c-1.41,0-2.37-.96-2.37-2.34,0-2.22,2.31-3.69,5.79-3.69,1.95,0,3.72.42,4.62,1.08,1.2.87,1.47,1.65,1.47,4.26v6.24c0,.72.24,1.05.72,1.05.69,0,.9-.72.9-2.97v-.33h1.8Zm-7.02-2.1c-.69.36-1.2.6-1.44.69l-1.53.6c-1.29.51-2.01,1.38-2.01,2.4,0,1.08.66,1.71,1.83,1.71.87,0,1.65-.33,2.22-.9.69-.69.93-1.47.93-2.79v-1.71Z"/>
  <path class="cls-1" d="m55.6,25.02h-9.48v-2.01h.96c1.5-.09,1.71-.3,1.71-1.77v-6.51c0-1.5-.21-1.71-1.71-1.77h-.96v-2.01h6.27v2.1c1.14-1.8,2.19-2.49,3.81-2.49,2.04,0,3.54,1.35,3.54,3.21,0,1.47-.99,2.52-2.4,2.52-1.23,0-2.04-.72-2.04-1.83,0-1.02.51-1.59,1.8-2.01-.54-.18-1.02-.3-1.32-.3-.81,0-1.8.63-2.43,1.56-.6.9-.96,2.28-.96,3.72v3.81c0,1.47.21,1.71,1.71,1.77h1.5v2.01Z"/>
  <path class="cls-1" d="m70.27,22.59c2.43,0,3.6.18,4.65.75,1.14.63,1.89,1.89,1.89,3.27,0,1.53-.9,2.97-2.22,3.66-1.5.75-3.81,1.17-6.45,1.17-4.65,0-7.41-1.29-7.41-3.45,0-1.29.69-1.92,2.76-2.58-1.68-.54-2.4-1.32-2.4-2.67s.75-2.19,2.64-2.97c-1.53-1.44-2.04-2.46-2.04-4.02,0-3.21,2.64-5.31,6.66-5.31,2.01,0,3.27.36,4.92,1.35,1.05-1.02,1.77-1.35,2.94-1.35,1.98,0,3.24,1.14,3.24,2.97,0,1.23-.81,2.13-1.95,2.13-1.08,0-1.92-.78-1.92-1.8,0-.87.42-1.35,1.41-1.65-.42-.3-.63-.39-.99-.39-.72,0-1.26.33-1.98,1.23.63,1.23.81,1.86.81,2.85,0,3.27-2.49,5.28-6.57,5.28-1.05,0-1.74-.12-3.24-.51-.57.42-.75.66-.75,1.02,0,.72.57,1.02,1.92,1.02h4.08Zm-6.21,3.78c-.48.33-.75.81-.75,1.32,0,1.38,1.53,2.04,4.62,2.04,3.3,0,4.95-.75,4.95-2.19,0-1.35-1.08-1.77-4.56-1.77-2.4,0-3.69.18-4.26.6Zm1.56-10.8c0,2.52.78,3.6,2.61,3.6s2.67-1.05,2.67-3.42-.81-3.57-2.67-3.57-2.61,1.08-2.61,3.39Z"/>
  <path class="cls-1" d="m96.37,19.77c-.03,2.31-.12,3.06-.42,3.84-.57,1.29-1.62,1.92-3.3,1.92-1.77,0-2.61-.6-3.21-2.22-1.47,1.68-2.67,2.25-4.8,2.25-2.55,0-4.29-1.56-4.29-3.84,0-1.53.81-2.82,2.25-3.51.99-.51,2.07-.87,4.26-1.38,1.95-.48,2.61-1.08,2.61-2.4,0-1.56-1.08-2.37-3.15-2.37-1.2,0-1.92.24-2.79.87,1.41.09,1.98.57,1.98,1.65s-.84,1.89-2.07,1.89c-1.41,0-2.37-.96-2.37-2.34,0-2.22,2.31-3.69,5.79-3.69,1.95,0,3.72.42,4.62,1.08,1.2.87,1.47,1.65,1.47,4.26v6.24c0,.72.24,1.05.72,1.05.69,0,.9-.72.9-2.97v-.33h1.8Zm-7.02-2.1c-.69.36-1.2.6-1.44.69l-1.53.6c-1.29.51-2.01,1.38-2.01,2.4,0,1.08.66,1.71,1.83,1.71.87,0,1.65-.33,2.22-.9.69-.69.93-1.47.93-2.79v-1.71Z"/>
  <path class="cls-1" d="m97.69,19.44h2.19c.51,1.83,1.08,2.7,2.28,3.36.69.36,1.5.57,2.43.57,1.53,0,2.52-.69,2.52-1.8,0-.9-.72-1.44-2.49-1.86l-2.19-.51c-3.09-.75-4.59-2.16-4.59-4.35,0-2.64,2.19-4.41,5.49-4.41,1.59,0,2.73.39,4.26,1.41l.63-1.08h1.71v5.19h-2.01c-.45-1.29-.81-1.89-1.53-2.43-.69-.57-1.89-.96-2.88-.96-1.35,0-2.22.63-2.22,1.62,0,.78.54,1.26,1.68,1.53l2.67.63c3.54.84,5.04,2.22,5.04,4.62,0,2.82-2.16,4.56-5.7,4.56-1.86,0-2.73-.3-4.77-1.59l-.54,1.26h-1.98v-5.76Z"/>
  <path class="cls-1" d="m112.3,5.01h6.09v8.4c1.86-2.16,3.15-2.91,5.04-2.91,1.29,0,2.61.48,3.36,1.23s1.02,1.83,1.02,3.96v5.55c0,1.5.21,1.71,1.71,1.77h.84v2.01h-8.43v-2.01h.6c1.47-.06,1.68-.27,1.68-1.77v-5.55c0-1.23-.09-1.65-.42-2.1-.36-.48-1.02-.78-1.77-.78-1.05,0-2.07.54-2.76,1.47-.66.84-.87,1.71-.87,3.45v3.51c0,1.5.21,1.71,1.71,1.77h.6v2.01h-8.4v-2.01h.78c1.5-.06,1.71-.27,1.71-1.77v-12.45c0-1.5-.21-1.71-1.71-1.77h-.78v-2.01Z"/>
</svg>