<?xml version="1.0" encoding="UTF-8"?>
<svg id="Layer_1" data-name="Layer 1" xmlns="http://www.w3.org/2000/svg" viewBox="0 0 85 132.6">
  <defs>
    <style>
      .cls-1 {
        opacity: .3;
      }

      .cls-2 {
        opacity: .6;
      }

      .cls-3 {
        fill: #63428e;
        stroke-width: 0px;
      }
    </style>
  </defs>
  <g>
    <path class="cls-3" d="m17.41,65.74h3.06v-23.9l-3.06-.57v24.47Z"/>
    <path class="cls-3" d="m68.08,37.84c-.94-.66-4.18-.94-4.18-.94V15.53c0-5.57-7.93-10.44-23.25-10.44s-23.25,4.87-23.25,10.44v21.37s-3.24.28-4.18.94c-.94.66-1.1,3.43-.52,3.43h4.7l3.06.57s4.98,11.28,4.98,13.89v10.01h-8.04v34.57c0,5.43,1.67,9.74,4.59,13.64,2.92,3.9,13.88,4.04,18.65,4.04s15.73-.14,18.65-4.04c2.92-3.9,4.59-8.21,4.59-13.64v-34.57h-8.04v-10.01c0-2.61,4.98-13.89,4.98-13.89l3.06-.57h4.7c.57,0,.42-2.77-.52-3.43Zm-42.63,42.21c0,3.24-4.98,7.45-4.98,7.45v-19.66h4.98v12.21Zm15.21,30.28c-12.77,0-14.37-4.28-14.37-4.28l2.19-9.81s4.91,1.57,12.18,1.57,12.18-1.57,12.18-1.57l2.19,9.81s-1.6,4.28-14.37,4.28Zm20.18-42.49v19.66s-4.98-4.21-4.98-7.45v-12.21h4.98Zm-7.37-15.04s-6.75-1.25-12.81-1.25-12.81,1.25-12.81,1.25l-4.07-16.39s3.84-3.34,16.88-3.34,16.88,3.34,16.88,3.34l-4.07,16.39Z"/>
    <path class="cls-3" d="m60.84,65.74h3.06v-24.47l-3.06.57v23.9Z"/>
  </g>
  <g>
    <g class="cls-2">
      <path class="cls-3" d="m18.54,120.91l-.8,1.6c3.79,1.53,8.1,2.66,12.7,3.33l.27-1.77c-4.4-.64-8.53-1.71-12.17-3.17Z"/>
      <path class="cls-3" d="m46.94,126.3l-.27-1.77c-1.97.17-3.98.26-6.01.26s-4.04-.09-6.01-.26l-.27,1.77c2.06.18,4.16.28,6.29.28s4.23-.09,6.29-.28Z"/>
      <path class="cls-3" d="m62.76,120.91c-3.63,1.45-7.76,2.52-12.17,3.16l.27,1.76c4.59-.67,8.9-1.8,12.69-3.33l-.8-1.6Z"/>
    </g>
    <g>
      <path class="cls-3" d="m31.17,121.13c-4.08-.59-7.92-1.56-11.29-2.87l-.8,1.6c3.53,1.39,7.55,2.41,11.82,3.03l.27-1.77Z"/>
      <path class="cls-3" d="m50.41,122.9c4.27-.62,8.29-1.65,11.82-3.04l-.8-1.6c-3.38,1.31-7.21,2.29-11.29,2.88l.27,1.76Z"/>
      <path class="cls-3" d="m34.82,123.35c1.92.16,3.87.25,5.83.25s3.91-.09,5.83-.25l-.28-1.77c-1.83.15-3.68.23-5.55.23s-3.73-.08-5.56-.23l-.28,1.77Z"/>
    </g>
    <g class="cls-1">
      <path class="cls-3" d="m30.25,127.05c-4.74-.68-9.14-1.83-13.06-3.43l-.8,1.6c4.08,1.68,8.66,2.89,13.59,3.59l.27-1.77Z"/>
      <path class="cls-3" d="m47.13,127.49c-2.11.18-4.27.27-6.47.27s-4.37-.1-6.47-.28l-.28,1.77c2.2.19,4.45.29,6.75.29s4.55-.1,6.75-.29l-.28-1.77Z"/>
      <path class="cls-3" d="m64.92,125.22l-.8-1.6c-3.92,1.6-8.32,2.75-13.06,3.43l.27,1.77c4.93-.71,9.51-1.92,13.59-3.59Z"/>
    </g>
  </g>
</svg>