<?xml version="1.0" encoding="UTF-8"?>
<svg id="Layer_1" data-name="Layer 1" xmlns="http://www.w3.org/2000/svg" viewBox="0 0 24 24">
  <defs>
    <style>
      .cls-1 {
        fill: #ae66d8;
        stroke-width: 0px;
      }
    </style>
  </defs>
  <path class="cls-1" d="m11.97,8.33c-1.97,0-3.57,1.6-3.57,3.57s1.6,3.57,3.57,3.57,3.57-1.6,3.57-3.57-1.6-3.57-3.57-3.57Zm1.79,3.19l-1.83,1.83c-.12.12-.28.18-.43.18s-.32-.06-.43-.18l-.91-.91c-.24-.24-.24-.63,0-.89.24-.24.63-.24.89,0l.47.47,1.4-1.4c.24-.24.63-.24.89,0,.2.26.2.65-.04.89h0Z"/>
  <path class="cls-1" d="m20.33,6.01H3.62c-.55,0-1.01.45-1.01,1.01v9.75c0,.55.45,1.01,1.01,1.01h16.69c.55,0,1.01-.45,1.01-1.01V7.01c.02-.55-.43-1-.99-1h0Zm-.43,8.37c-1.01.2-1.77.97-1.97,1.97H6.02c-.2-1.01-.97-1.77-1.97-1.97v-4.97c1.01-.2,1.77-.97,1.97-1.97h11.9c.2,1.01.97,1.77,1.97,1.97v4.97Z"/>
  <path class="cls-1" d="m6.3,10.91c-.55,0-.99.45-.99.99s.45.99.99.99.99-.45.99-.99-.43-.99-.99-.99Z"/>
  <path class="cls-1" d="m17.65,10.91c-.55,0-.99.45-.99.99s.45.99.99.99.99-.45.99-.99-.43-.99-.99-.99Z"/>
</svg>