<?xml version="1.0" encoding="UTF-8"?>
<svg id="Layer_1" data-name="Layer 1" xmlns="http://www.w3.org/2000/svg" viewBox="0 0 24 24">
  <defs>
    <style>
      .cls-1 {
        fill: #ae66d8;
        stroke-width: 0px;
      }
    </style>
  </defs>
  <path class="cls-1" d="m11.9,4.39c-4.01,0-7.28,3.26-7.28,7.28s3.26,7.28,7.28,7.28,7.28-3.26,7.28-7.28-3.26-7.28-7.28-7.28Zm0,1.39c2.68,0,4.94,1.8,5.65,4.25-2-.51-3.85-.77-5.65-.77s-3.65.25-5.65.77c.71-2.45,2.98-4.25,5.65-4.25h0Zm0,7.72c-.8,0-1.46-.65-1.46-1.46s.65-1.46,1.46-1.46,1.46.65,1.46,1.46-.65,1.46-1.46,1.46Zm-5.77-.69c2.39.03,4.25,1.96,4.25,4.43,0,.04,0,.08,0,.12-2.15-.58-3.82-2.34-4.25-4.54h0Zm7.29,4.54s0-.08,0-.12c0-2.47,1.86-4.4,4.25-4.43-.43,2.2-2.1,3.97-4.25,4.54h0Z"/>
</svg>