<?xml version="1.0" encoding="UTF-8"?>
<svg id="Layer_1" data-name="Layer 1" xmlns="http://www.w3.org/2000/svg" viewBox="0 0 24 24">
  <defs>
    <style>
      .cls-1 {
        fill: #ae66d8;
        stroke-width: 0px;
      }
    </style>
  </defs>
  <path class="cls-1" d="m12.42,11.62c0,.94-1.41.94-1.41,0s1.41-.94,1.41,0"/>
  <path class="cls-1" d="m11.71,18.9c4.02,0,7.28-3.26,7.28-7.28s-3.26-7.28-7.28-7.28-7.28,3.26-7.28,7.28,3.26,7.28,7.28,7.28Zm-.7-13.1v2.54h1.41v-2.54c2.68.33,4.79,2.44,5.12,5.12h-2.54v1.41h2.54c-.33,2.68-2.44,4.79-5.12,5.12v-2.54h-1.41v2.54c-2.68-.33-4.79-2.44-5.12-5.12h2.54v-1.41h-2.54c.33-2.68,2.44-4.79,5.12-5.12Z"/>
</svg>