<?xml version="1.0" encoding="UTF-8"?>
<svg id="Layer_1" data-name="Layer 1" xmlns="http://www.w3.org/2000/svg" viewBox="0 0 54.91 41.52">
  <defs>
    <style>
      .cls-1 {
        fill: #2d1679;
        stroke-width: 0px;
      }
    </style>
  </defs>
  <rect class="cls-1" x="16.73" y="33.22" width="17.77" height="1.86"/>
  <path class="cls-1" d="m39.28,33.62c-2.31,0-4.18-1.88-4.18-4.18v-8.49c0-1.29-1.05-2.33-2.33-2.33h-1.02v-1.63h1.02c2.18,0,3.96,1.78,3.96,3.96v8.49c0,1.41,1.15,2.56,2.56,2.56.77,0,1.5-.35,1.99-.95.49-.6.68-1.38.51-2.14l-1.43-6.76c-.35-1.64-.52-3.33-.52-5v-4.17h1.63v4.17c0,1.56.16,3.13.49,4.67l1.43,6.76c.26,1.24-.04,2.52-.84,3.5-.8.98-1.98,1.55-3.25,1.55Z"/>
  <path class="cls-1" d="m34.92,7.49s4.32,5.36,5.19,8.11c0,0,2.31-.74,2.64-1.12.33-.38-5.24-6.55-6.72-7.84-.25-.17-1.37.52-1.11.85Z"/>
  <path class="cls-1" d="m30.17,6.11h-9.1c-1.57,0-2.85,1.27-2.85,2.85v25.27h14.8V8.96c0-1.57-1.27-2.85-2.85-2.85Zm.31,10.63h-9.71v-7.5h9.71v7.5Z"/>
</svg>